<?xml version="1.0" encoding="UTF-8"?>
<svg id="Layer_1" xmlns="http://www.w3.org/2000/svg" version="1.1" viewBox="0 0 24 24">
  <!-- Generator: Adobe Illustrator 30.2.1, SVG Export Plug-In . SVG Version: 2.1.1 Build 1)  -->
  <defs>
    <style>
      .st0 {
        fill: #fff;
      }
    </style>
  </defs>
  <path class="st0" d="M16.9,15.5c2.4-3.2,2.2-7.7-.7-10.6-3.1-3.1-8.1-3.1-11.3,0-3.1,3.2-3.1,8.3,0,11.4,2.9,2.9,7.5,3.1,10.6.6v.1l4.2,4.2c.5.4,1.1.4,1.5,0s.4-1,0-1.4l-4.3-4.3h0ZM14.8,6.3c2.3,2.3,2.3,6.1,0,8.5-2.3,2.3-6.1,2.3-8.5,0-2.3-2.3-2.3-6.1,0-8.5,2.4-2.3,6.2-2.3,8.5,0Z"/>
</svg>